# xmcd
#
# Track frame offsets: 
#        150
#        63229
#        97097
#        145007
#        203227
#        258269
#
# Disc length: 3848 seconds
#
# Revision: 2
# Processed by: cddbd v1.5.2PL0 Copyright (c) Steve Scherf et al.
# Submitted via: ExactAudioCopy v1.0b3
#
DISCID=510f0606
DTITLE=Gershwin - Rhapsody in Blue
DYEAR=0
DGENRE=Classical
TTITLE0=Rhapsody in Blue
TTITLE1=An American in Paris
TTITLE2=An American in Paris
TTITLE3=Piano Concerto in F
TTITLE4=Piano Concerto in F
TTITLE5=Piano Concerto in F
EXTD=
EXTT0=
EXTT1=
EXTT2=
EXTT3=
EXTT4=
EXTT5=
PLAYORDER=
